<svg xmlns="http://www.w3.org/2000/svg" viewBox="0 0 80 68" width="80" height="68">
  <defs>
    <linearGradient id="stoneTop" x1="0%" y1="0%" x2="100%" y2="100%">
      <stop offset="0%" stop-color="#ffd4c8"/>
      <stop offset="45%" stop-color="#f5b0a0"/>
      <stop offset="100%" stop-color="#e89890"/>
    </linearGradient>
    <linearGradient id="stoneSide" x1="0%" y1="0%" x2="0%" y2="100%">
      <stop offset="0%" stop-color="#d88880"/>
      <stop offset="100%" stop-color="#b87068"/>
    </linearGradient>
    <radialGradient id="grass" cx="50%" cy="40%" r="60%">
      <stop offset="0%" stop-color="#7ec85a"/>
      <stop offset="70%" stop-color="#5aad42"/>
      <stop offset="100%" stop-color="#3d8a30"/>
    </radialGradient>
    
  </defs>
  <ellipse cx="40" cy="41.15" rx="25.299999999999997" ry="5.8500000000000005" fill="url(#grass)" opacity="0.95"/>
  <ellipse cx="29" cy="39.15" rx="7.699999999999999" ry="2.6" fill="#6bc04a" opacity="0.7"/>
  <ellipse cx="49.9" cy="40.15" rx="6.6" ry="2.34" fill="#72c850" opacity="0.65"/>
  <circle cx="24.6" cy="38.15" r="2.2" fill="#ffb8c8"/>
  <circle cx="24.6" cy="38.15" r="0.8" fill="#ffe880"/>
  <circle cx="52.1" cy="41.15" r="1.8" fill="#ffc0d0"/>
  <circle cx="52.1" cy="41.15" r="0.7" fill="#ffe880"/>
  <circle cx="36.7" cy="43.15" r="1.5" fill="#ffb0c0"/>
  <circle cx="36.7" cy="43.15" r="0.6" fill="#ffe880"/>
  <ellipse cx="40" cy="37.55" rx="20.240000000000002" ry="6" fill="url(#stoneSide)" opacity="0.9"/>
  <ellipse cx="40" cy="30" rx="22" ry="13" fill="url(#stoneTop)"/>
  <ellipse cx="34.5" cy="28.05" rx="9.9" ry="4.55" fill="#ffe8e0" opacity="0.55"/>
  <ellipse cx="46.6" cy="31.3" rx="5.5" ry="2.6" fill="#c87870" opacity="0.18"/>
  
  <path d="M35.6 28.7 Q38.9 30.65 41.76 31.95" stroke="#d89088" stroke-width="1.2" fill="none" opacity="0.45" stroke-linecap="round"/>
  <path d="M43.3 27.4 Q46.16 30 42.64 32.6" stroke="#d08078" stroke-width="0.9" fill="none" opacity="0.35" stroke-linecap="round"/>
</svg>